<svg width="224" height="39" viewBox="0 0 224 39" fill="none" xmlns="http://www.w3.org/2000/svg">
<path d="M19.05 38.7C24.25 38.7 28.85 36.65 31.45 34.15V16.75H17.6V24.05H23.5V30.05C22.7 30.65 21.3 31 20 31C13.05 31 9.75 26.7 9.75 19.3C9.75 12.05 13.7 7.75 19.2 7.75C22.3 7.75 24.25 9 26.1 10.65L30.8 4.95C28.25 2.4 24.35 0.0999992 18.9 0.0999992C8.95 0.0999992 0.6 7.2 0.6 19.6C0.6 32.2 8.75 38.7 19.05 38.7ZM38.4699 38H47.3699V21.75C48.8199 18 51.3699 16.65 53.4699 16.65C54.7199 16.65 55.5699 16.85 56.6199 17.1L58.0699 9.45C57.2699 9.1 56.3199 8.85 54.6199 8.85C51.7699 8.85 48.6199 10.7 46.5199 14.5H46.3699L45.7199 9.55H38.4699V38ZM73.2855 38.7C80.4855 38.7 87.1855 33.2 87.1855 23.75C87.1855 14.35 80.4855 8.85 73.2855 8.85C66.0355 8.85 59.3355 14.35 59.3355 23.75C59.3355 33.2 66.0355 38.7 73.2855 38.7ZM73.2855 31.5C69.9355 31.5 68.4355 28.5 68.4355 23.75C68.4355 19.05 69.9355 16.05 73.2855 16.05C76.5855 16.05 78.0855 19.05 78.0855 23.75C78.0855 28.5 76.5855 31.5 73.2855 31.5ZM101.571 38.7C105.421 38.7 108.071 36.9 110.421 34.1H110.621L111.271 38H118.521V9.55H109.621V28.2C108.121 30.3 106.871 31.1 104.871 31.1C102.621 31.1 101.571 29.95 101.571 26.05V9.55H92.6715V27.15C92.6715 34.25 95.3215 38.7 101.571 38.7ZM125.886 38H134.786V19C136.486 17.35 137.686 16.45 139.686 16.45C141.936 16.45 142.986 17.55 142.986 21.5V38H151.886V20.4C151.886 13.3 149.236 8.85 143.036 8.85C139.186 8.85 136.286 10.8 133.936 13.1H133.786L133.136 9.55H125.886V38ZM159.696 38H170.896C181.746 38 189.246 32.15 189.246 19.2C189.246 6.25 181.746 0.749997 170.396 0.749997H159.696V38ZM168.646 30.8V7.9H169.846C175.846 7.9 180.096 10.35 180.096 19.2C180.096 28.05 175.846 30.8 169.846 30.8H168.646ZM196.322 38H205.272V0.749997H196.322V38ZM218.503 38.7C221.553 38.7 223.803 36.25 223.803 33.15C223.803 30.05 221.553 27.65 218.503 27.65C215.403 27.65 213.203 30.05 213.203 33.15C213.203 36.25 215.403 38.7 218.503 38.7Z" fill="#2D2A2A"/>
</svg>
