<svg width="43" height="39" viewBox="0 0 43 39" fill="none" xmlns="http://www.w3.org/2000/svg">
<circle cx="25" cy="21.5" r="1.5" fill="#404346"/>
<circle cx="30" cy="21.5" r="1.5" fill="#404346"/>
<circle cx="35" cy="21.5" r="1.5" fill="#404346"/>
<circle cx="25" cy="26.5" r="1.5" fill="#404346"/>
<circle cx="30" cy="26.5" r="1.5" fill="#404346"/>
<circle cx="35" cy="26.5" r="1.5" fill="#404346"/>
<circle cx="25" cy="31.5" r="1.5" fill="#404346"/>
<circle cx="30" cy="31.5" r="1.5" fill="#404346"/>
<circle cx="35" cy="31.5" r="1.5" fill="#404346"/>
<path d="M15.4167 37H4C2.89543 37 2 36.1046 2 35V14.4444C2 7.57157 7.57157 2 14.4444 2H24.6154C27.5892 2 30 4.41078 30 7.38462V7.38462" stroke="#404346" stroke-width="3" stroke-linecap="round"/>
<path d="M41.3346 17.3009C41.34 17.3282 41.3363 17.337 41.3359 17.3383C41.3345 17.343 41.3281 17.36 41.3049 17.3847C41.2539 17.4388 41.1471 17.5 41 17.5H29L17 17.5C16.8529 17.5 16.7461 17.4389 16.6951 17.3847C16.6719 17.36 16.6655 17.343 16.6641 17.3383C16.6641 17.3383 16.6641 17.3382 16.664 17.3381C16.6634 17.3362 16.6603 17.3269 16.6654 17.3009C16.8149 16.5378 17.0656 15.7861 17.4163 15.0605C18.0246 13.8015 18.9242 12.6414 20.0767 11.6536C21.2295 10.6654 22.6101 9.8717 24.1443 9.327C25.6785 8.7823 27.329 8.5 29 8.5C30.671 8.5 32.3215 8.7823 33.8557 9.327C35.3899 9.87169 36.7705 10.6654 37.9233 11.6536C39.0758 12.6414 39.9754 13.8015 40.5837 15.0605C40.9344 15.7861 41.1851 16.5378 41.3346 17.3009Z" stroke="#404346" stroke-width="3"/>
</svg>
