<svg width="46" height="34" viewBox="0 0 46 34" fill="none" xmlns="http://www.w3.org/2000/svg">
<path d="M1.83398 10.9248C4.55784 8.20094 7.79152 6.04026 11.3504 4.56612C14.9093 3.09198 18.7237 2.33325 22.5758 2.33325C26.4279 2.33325 30.2423 3.09198 33.8012 4.56612C37.3601 6.04025 40.5937 8.20093 43.3176 10.9248" stroke="#404346" stroke-width="3.5" stroke-linecap="round"/>
<path d="M8.31445 17.4067C10.1871 15.534 12.4103 14.0486 14.857 13.0351C17.3037 12.0216 19.9261 11.5 22.5744 11.5C25.2228 11.5 27.8452 12.0216 30.2919 13.0351C32.7386 14.0486 34.9618 15.534 36.8344 17.4067" stroke="#404346" stroke-width="3.5" stroke-linecap="round"/>
<path d="M14.7969 23.8886C15.8183 22.8671 17.0309 22.0569 18.3655 21.5041C19.7001 20.9513 21.1305 20.6667 22.575 20.6667C24.0196 20.6667 25.45 20.9513 26.7846 21.5041C28.1191 22.0569 29.3318 22.8671 30.3532 23.8886" stroke="#404346" stroke-width="3.5" stroke-linecap="round"/>
<ellipse cx="22.7422" cy="30.9168" rx="3" ry="3" fill="#404346"/>
</svg>
