<svg width="151" height="28" viewBox="0 0 151 28" fill="none" xmlns="http://www.w3.org/2000/svg">
<path d="M13.315 27.49C16.885 27.49 19.965 26.125 21.715 24.375V12.72H12.475V16.955H17.095V22.065C16.36 22.66 15.1 23.01 13.84 23.01C8.765 23.01 6.175 19.65 6.175 13.98C6.175 8.45 9.15 5.09 13.49 5.09C15.8 5.09 17.27 6.035 18.565 7.26L21.295 3.935C19.615 2.255 17.025 0.644999 13.315 0.644999C6.42 0.644999 0.89 5.615 0.89 14.155C0.89 22.8 6.28 27.49 13.315 27.49ZM26.8529 27H31.9979V15.345C33.0829 12.51 34.9379 11.46 36.4429 11.46C37.2829 11.46 37.8079 11.6 38.5079 11.775L39.3829 7.365C38.7879 7.085 38.1579 6.945 37.1079 6.945C35.0779 6.945 32.9429 8.31 31.5429 10.9H31.4379L31.0179 7.435H26.8529V27ZM49.7402 27.49C54.6402 27.49 59.1202 23.71 59.1202 17.235C59.1202 10.725 54.6402 6.945 49.7402 6.945C44.8052 6.945 40.3252 10.725 40.3252 17.235C40.3252 23.71 44.8052 27.49 49.7402 27.49ZM49.7402 23.325C47.0452 23.325 45.5752 20.91 45.5752 17.235C45.5752 13.525 47.0452 11.145 49.7402 11.145C52.4002 11.145 53.8702 13.525 53.8702 17.235C53.8702 20.91 52.4002 23.325 49.7402 23.325ZM69.3043 27.49C71.9643 27.49 73.8193 26.195 75.5343 24.2H75.6393L76.0243 27H80.2243V7.435H75.1143V20.63C73.7843 22.38 72.7343 23.08 71.1243 23.08C69.1993 23.08 68.3593 22.03 68.3593 19.02V7.435H63.2143V19.65C63.2143 24.585 65.0693 27.49 69.3043 27.49ZM85.7445 27H90.8895V13.525C92.3245 12.125 93.3395 11.355 94.9495 11.355C96.8395 11.355 97.7145 12.37 97.7145 15.45V27H102.859V14.785C102.859 9.885 101.004 6.945 96.8045 6.945C94.1445 6.945 92.1145 8.345 90.4345 10.025H90.3295L89.9095 7.435H85.7445V27ZM108.586 27H115.971C123.601 27 128.466 22.66 128.466 13.945C128.466 5.195 123.601 1.1 115.691 1.1H108.586V27ZM113.766 22.835V5.23H115.341C120.206 5.23 123.181 7.645 123.181 13.945C123.181 20.245 120.206 22.835 115.341 22.835H113.766ZM133.572 27H138.752V1.1H133.572V27ZM147.609 27.49C149.429 27.49 150.829 26.055 150.829 24.13C150.829 22.205 149.429 20.805 147.609 20.805C145.754 20.805 144.424 22.205 144.424 24.13C144.424 26.055 145.754 27.49 147.609 27.49Z" fill="black"/>
</svg>
