<?xml version="1.0" encoding="utf-8"?>
<!-- Generator: Adobe Illustrator 26.3.1, SVG Export Plug-In . SVG Version: 6.00 Build 0)  -->
<svg version="1.1" id="레이어_1" xmlns="http://www.w3.org/2000/svg" xmlns:xlink="http://www.w3.org/1999/xlink" x="0px"
	 y="0px" viewBox="0 0 590 216" style="enable-background:new 0 0 590 216;" xml:space="preserve">
<style type="text/css">
	.st0{font-family:'NotoSansKR-Black-KSCpc-EUC-H';}
	.st1{font-size:67.3183px;}
	.st2{font-size:145.7284px;}
</style>
<g>
	<path d="M103.36,216.47c-0.65,0-1.29-0.01-1.93-0.01c-18.26-0.27-33.52-3.73-46.65-10.6c-23.12-12.1-41.21-36.18-49.63-66.06
		c-8.19-29.12-6.05-59.02,6.03-84.19C22.15,32.77,44.37,14.62,72.14,5.82c11.93-3.79,24.54-5.7,37.48-5.7
		c13.93,0,27.81,2.34,40.16,6.77c13.97,5.02,25.71,11.89,35.88,21.01c9.79,8.79,17.68,20.46,23.45,34.7
		c1.07,2.64,0.49,6.53-1.55,10.4c-1.47,2.78-4.41,5-8.29,6.26c-0.95,0.31-2.04,0.46-3.24,0.46c-2.51,0-5.22-0.71-7.25-1.89
		c-2.45-1.44-4.15-3.46-5.66-6.77c0,0-0.28-0.61-0.32-0.7l0.05,0.02l-2.12-4.38l-0.02,0.05c-1.33-2.56-2.79-5.02-4.35-7.35
		l0.01-0.01l-0.48-0.8l-0.53-0.76l-0.79-0.97c-0.51-0.63-1.03-1.26-1.56-1.88c-1.66-1.91-3.5-3.83-5.46-5.7
		c-1.15-1.09-2.42-2.21-3.97-3.49c-0.78-0.61-1.72-1.34-2.29-1.73c-1.05-0.73-2.15-1.47-3.27-2.18c-3.67-2.33-7.66-4.48-11.87-6.38
		c-6.1-2.41-12.51-4.27-19.09-5.56l0.03-0.21l-3.99-0.54l0,0.04c-0.12-0.02-0.23-0.04-0.35-0.05c-4.43-0.49-8.87-0.74-13.24-0.74
		c-4.41,0-8.88,0.25-13.29,0.74c-8.38,1.3-16.46,3.48-24.04,6.47c-4.59,2.06-8.89,4.37-12.81,6.89c-0.64,0.41-1.29,0.83-1.96,1.28
		l-0.84,0.5l-0.79,0.54l-1.49,1.21l0.02,0.02c-0.3,0.24-0.56,0.44-0.56,0.44c-1.6,1.33-2.87,2.44-4.01,3.52
		c-1.92,1.8-3.78,3.73-5.54,5.74c-0.22,0.24-0.43,0.5-0.65,0.75c-0.06,0.06-0.23,0.27-0.46,0.55c-0.29,0.35-1.52,1.85-1.52,1.85
		l-1.21,1.49l0.16,0.13c-1.66,2.48-3.22,5.11-4.65,7.86l-0.24-0.1l-1.55,3.68l0.04,0.02c-0.04,0.09-0.08,0.17-0.12,0.25
		c-2.5,6.42-4.33,13.24-5.45,20.3c-0.79,7.15-0.91,14.45-0.35,21.76l-0.2,0.03l0.54,4l0.04-0.01l0.04,0.35
		c1.42,9.11,3.81,17.94,7.13,26.28c2.12,4.71,4.46,9.13,6.98,13.16c1.18,1.9,2.5,3.84,4.28,6.29c0.29,0.36,0.49,0.61,0.69,0.86
		c0.89,1.08,1.82,2.14,2.75,3.16c1.82,2,3.73,3.9,5.66,5.66c0.23,0.21,0.46,0.41,0.68,0.62l0.63,0.65l0.69,0.61
		c0.06,0.05,1.26,0.94,1.38,1.03c0.95,0.78,1.53,1.19,2,1.41c3.4,2.31,7.03,4.36,10.78,6.1c5.04,1.93,10.25,3.29,15.99,4.21
		c5.05,0.58,10.05,0.87,14.92,0.87c4.46,0,8.91-0.24,13.22-0.72c7.52-1.18,14.66-3.08,21.26-5.65c3.67-1.66,7.07-3.48,10.15-5.44
		c0.9-0.57,1.81-1.17,2.7-1.79c0.23-0.16,0.74-0.54,1.22-0.89c0.46-0.36,0.8-0.64,0.99-0.8c0.82-0.7,1.62-1.41,2.37-2.12
		c1.6-1.5,3.15-3.09,4.59-4.74c0.3-0.34,0.58-0.7,0.86-1.06c0.24-0.31,0.41-0.52,0.58-0.72l0.18-0.23c1.99-2.85,3.75-5.91,5.26-9.12
		c1.46-3.86,2.53-7.81,3.23-11.81c0.33-3.37,0.42-6.78,0.28-10.21l0.04,0.04l-0.35-4.9l-0.03,0.04c0-0.04-0.01-0.07-0.01-0.11
		c-1.04-6.39-2.64-12.4-4.76-17.93c-0.08-0.17-0.15-0.32-0.22-0.47l0.05-0.02l-1.54-3.64l-0.31,0.13c-0.85-1.56-1.76-3.08-2.71-4.53
		c-0.22-0.57-0.62-1.18-1.39-2.13l-0.46-0.56c-0.07-0.1-0.62-0.84-0.75-1.01l-1.12-1.55l-0.21,0.15c-1.4-1.55-2.91-3.09-4.5-4.58
		c-0.36-0.33-0.72-0.67-1.09-1l0.01-0.01l-0.66-0.67l-0.71-0.61l-1.13-0.81c-0.18-0.13-0.32-0.23-0.43-0.3l0.01,0
		c-0.8-0.59-1.18-0.88-1.5-1.07c-0.88-0.62-1.67-1.15-2.48-1.67c-3.13-1.98-6.49-3.79-9.99-5.39c-5.41-2.1-10.91-3.62-16.39-4.53
		c-2.59-0.27-5.11-0.4-7.56-0.4c-2.12,0-4.27,0.1-6.37,0.29c-3.55,0.62-6.89,1.5-10,2.64c-2.1,0.99-3.97,2.04-5.66,3.14
		c-0.3,0.19-0.6,0.4-0.9,0.61l-0.15,0.11c-0.71,0.61-1.42,1.22-2.12,1.9c-0.89,0.87-1.74,1.77-2.54,2.69
		c-0.26,0.34-0.4,0.53-0.53,0.72c-1.19,1.75-2.29,3.67-3.27,5.7c-1.2,3.21-2.09,6.53-2.69,9.95c-0.31,3.19-0.43,6.46-0.34,9.79
		c0.21,8.07-7.04,13.39-13.89,13.69c-0.18,0.01-0.35,0.01-0.52,0.01c-7.63,0-12.94-7.16-13.12-13.85
		c-0.18-7.01,0.51-13.92,2.06-20.53c5.28-22.54,24.4-39.94,47.59-43.27c4.09-0.59,8.24-0.89,12.34-0.89
		c20.21,0,39.86,7.04,56.84,20.37c9.1,7.13,16.71,16.48,21.42,26.33c7.21,15.05,10.56,31.44,9.44,46.15
		c-0.65,8.55-2.12,15.61-4.52,21.58c-3.17,7.92-6.96,14.42-12.26,21.1c-8.11,10.19-19.63,18.21-35.21,24.54
		C133.22,213.84,118.65,216.47,103.36,216.47z"/>
	<text transform="matrix(1 0 0 1 221.7607 154.9043)"><tspan x="0" y="0" class="st0 st1">r o u n D I </tspan><tspan x="327.56" y="0" class="st0 st2">.</tspan></text>
</g>
</svg>
