<svg width="18" height="18" viewBox="0 0 13 13" fill="none" xmlns="http://www.w3.org/2000/svg">
<path fill-rule="evenodd" clip-rule="evenodd" d="M3.20791 1.32957C4.07753 0.480574 5.2613 0 6.5 0C7.7387 0 8.92247 0.480574 9.79209 1.32957C10.6611 2.17792 11.1459 3.32468 11.1459 4.51666C11.1459 7.29303 12.1083 8.77798 12.7766 9.48096C13.0668 9.7862 13.0223 10.1885 12.9313 10.4237C12.8429 10.6518 12.5839 11.029 12.0922 11.029H9.29554C9.04153 11.6631 8.29497 13 6.5 13C4.70503 13 3.95847 11.6631 3.70446 11.029H0.907811C0.41611 11.029 0.15705 10.6518 0.0687438 10.4237C-0.0223064 10.1885 -0.0668003 9.7862 0.223398 9.48096C0.891745 8.77798 1.85411 7.29303 1.85411 4.51666C1.85411 3.32468 2.33894 2.17792 3.20791 1.32957ZM6.5 1.05051C5.57009 1.05051 4.67407 1.41098 4.01025 2.05905C3.34577 2.70777 2.96912 3.59147 2.96912 4.51666C2.96912 7.33282 2.05336 9.03092 1.23782 9.97853H3.88821C4.28616 9.97853 4.5987 10.2342 4.70619 10.5469C4.87111 11.0267 5.3416 11.9495 6.5 11.9495C7.6584 11.9495 8.12889 11.0267 8.29381 10.5469C8.4013 10.2342 8.71384 9.97853 9.11179 9.97853H11.7622C10.9466 9.03092 10.0309 7.33282 10.0309 4.51666C10.0309 3.59147 9.65423 2.70777 8.98976 2.05905C8.32593 1.41098 7.42991 1.05051 6.5 1.05051Z" fill="#222222"/>
</svg>
