<svg width="26" height="26" viewBox="0 0 26 26" fill="none" xmlns="http://www.w3.org/2000/svg">
<path d="M13 1L13.719 0.304978C13.5306 0.110064 13.2711 0 13 0C12.7289 0 12.4694 0.110064 12.281 0.304978L13 1ZM1 13.4138L0.281012 12.7188C0.00204384 13.0074 -0.0773418 13.4348 0.0793964 13.8043C0.236134 14.1738 0.59862 14.4138 1 14.4138V13.4138ZM25 13.4138V14.4138C25.4014 14.4138 25.7639 14.1738 25.9206 13.8043C26.0773 13.4348 25.998 13.0074 25.719 12.7188L25 13.4138ZM22.4286 25V26C22.9809 26 23.4286 25.5523 23.4286 25H22.4286ZM22.4286 13.4138H23.4286V12.4138H22.4286V13.4138ZM3.57143 13.4138V12.4138H2.57143V13.4138H3.57143ZM3.57143 25H2.57143C2.57143 25.5523 3.01914 26 3.57143 26V25ZM12.281 0.304978L0.281012 12.7188L1.71899 14.1088L13.719 1.69502L12.281 0.304978ZM1 14.4138H25V12.4138H1V14.4138ZM25.719 12.7188L13.719 0.304978L12.281 1.69502L24.281 14.1088L25.719 12.7188ZM23.4286 25V13.4138H21.4286V25H23.4286ZM22.4286 12.4138H3.57143V14.4138H22.4286V12.4138ZM2.57143 13.4138V25H4.57143V13.4138H2.57143ZM3.57143 26H9.57143V24H3.57143V26ZM13 16.5517C11.9473 16.5517 11.0635 16.8469 10.3738 17.4406C9.70182 18.019 9.30728 18.801 9.06451 19.6095C8.5935 21.178 8.60016 23.2122 8.57156 24.9839L10.5713 25.0161C10.6021 23.1111 10.6087 21.4211 10.98 20.1847C11.1584 19.5907 11.3956 19.2 11.6786 18.9564C11.9439 18.728 12.3384 18.5517 13 18.5517V16.5517ZM9.57143 26H16.4286V24H9.57143V26ZM16.4286 26H22.4286V24H16.4286V26ZM17.4286 25C17.4286 24.183 17.4329 22.1996 16.9681 20.4045C16.7358 19.5075 16.3651 18.5679 15.7451 17.8363C15.0961 17.0705 14.1851 16.5517 13 16.5517V18.5517C13.5292 18.5517 13.9039 18.7571 14.2192 19.1293C14.5635 19.5355 14.8356 20.1477 15.0319 20.9058C15.4243 22.4211 15.4286 24.1618 15.4286 25H17.4286Z" fill="#F84F39"/>
</svg>
