<svg width="18" height="18" viewBox="0 0 18 18" fill="none" xmlns="http://www.w3.org/2000/svg">
<path d="M12.75 16.25H5.25C4.14543 16.25 3.25 15.3546 3.25 14.25V3.75C3.25 2.64543 4.14543 1.75 5.25 1.75H6.06579C7.72265 1.75 9.06579 3.09314 9.06579 4.75V5.25C9.06579 6.63071 10.1851 7.75 11.5658 7.75H11.75C13.4069 7.75 14.75 9.09315 14.75 10.75V14.25C14.75 15.3546 13.8546 16.25 12.75 16.25Z" stroke="#14142B" stroke-width="1.5"/>
<path d="M12.75 16.5H5.25C4.00736 16.5 3 15.4926 3 14.25V3.75C3 2.50736 4.00736 1.5 5.25 1.5H5.87867C8.31223 1.5 10.6216 2.57442 12.1892 4.43588L13.0605 5.47059C14.3131 6.95803 15 8.84012 15 10.7847V14.25C15 15.4926 13.9926 16.5 12.75 16.5Z" stroke="#14142B" stroke-width="1.5"/>
</svg>
